<svg id="PS2" xmlns="http://www.w3.org/2000/svg" xmlns:xlink="http://www.w3.org/1999/xlink" viewBox="0 0 265.78 79.02"><defs><style>.cls-1{fill:url(#êVãKÉOÉâÉfÅ_ÉVÉáÉìÉXÉEÉHÉb);}.cls-2{fill:url(#êVãKÉOÉâÉfÅ_ÉVÉáÉìÉXÉEÉHÉb-2);}.cls-3{fill:url(#êVãKÉOÉâÉfÅ_ÉVÉáÉìÉXÉEÉHÉb-3);}.cls-4{fill:#fff;}</style><linearGradient id="êVãKÉOÉâÉfÅ_ÉVÉáÉìÉXÉEÉHÉb" x1="38.91" y1="-0.13" x2="38.91" y2="43.18" gradientUnits="userSpaceOnUse"><stop offset="0" stop-color="#364b9b"/><stop offset="1" stop-color="#00a4e6"/></linearGradient><linearGradient id="êVãKÉOÉâÉfÅ_ÉVÉáÉìÉXÉEÉHÉb-2" x1="210.9" y1="-0.13" x2="210.9" y2="43.19" xlink:href="#êVãKÉOÉâÉfÅ_ÉVÉáÉìÉXÉEÉHÉb"/><linearGradient id="êVãKÉOÉâÉfÅ_ÉVÉáÉìÉXÉEÉHÉb-3" x1="119.14" y1="-0.13" x2="119.14" y2="43.18" xlink:href="#êVãKÉOÉâÉfÅ_ÉVÉáÉìÉXÉEÉHÉb"/></defs><title>ps2-white</title><polyline class="cls-1" points="0 0 77.83 0 77.83 23.08 3.08 23.08 3.08 43.08 0 43.08 0 20 74.75 20 74.75 3.08 0 3.08 0 0"/><polyline class="cls-2" points="249.81 39.85 249.81 43.08 171.99 43.08 171.99 20 246.73 20 246.73 3.08 171.99 3.08 171.99 0 249.81 0 249.81 23.08 175.07 23.08 175.07 40 249.81 40 249.81 43.08"/><polyline class="cls-3" points="117.53 0 117.53 40 77.83 40 77.83 43.08 120.75 43.08 120.75 3.08 160.46 3.08 160.46 0 117.53 0"/><path class="cls-4" d="M63.54,88.26v15.15h2.37V89.71H68.1s1.59,0,2.13.71a4.35,4.35,0,0,1,.55,2.44,6.59,6.59,0,0,1-.32,2.46,1.75,1.75,0,0,1-1.67.82H67.35v1.35h2.07a4.31,4.31,0,0,0,2.69-.74c1-1,1.23-2.36,1.23-4.17,0-1.64-.59-3.3-1.81-3.86a8.66,8.66,0,0,0-2.82-.46H63.54" transform="translate(-0.09 -30.19)"/><rect class="cls-4" x="75.11" y="58.06" width="2.37" height="15.15"/><polyline class="cls-4" points="90.05 61.59 94.38 72.94 91.9 79.02 93.86 79.02 101.01 61.59 98.82 61.59 95.71 70.08 92.8 61.59 90.05 61.59"/><path class="cls-4" d="M102.89,103.31v-1.43s2.5.1,3,.1a2.65,2.65,0,0,0,2.16-.71,4.72,4.72,0,0,0,.49-2,5.76,5.76,0,0,0-.26-1.78,1.4,1.4,0,0,0-1.18-.79c-.43,0-1.1-.12-1.88-.16a3,3,0,0,1-2.16-1,3.94,3.94,0,0,1-.81-2.92,4.85,4.85,0,0,1,1-3.44,3.32,3.32,0,0,1,1.76-.81,13.42,13.42,0,0,1,1.67-.12l3.32.1V89.8s-2.42-.09-2.94-.09a2.11,2.11,0,0,0-1.93.71,2.84,2.84,0,0,0-.45,1.48,5.69,5.69,0,0,0,.22,1.71,1.4,1.4,0,0,0,1.18.79c.43,0,1.1.12,1.87.16a3,3,0,0,1,2.17,1,4.79,4.79,0,0,1,.81,3.17,5.76,5.76,0,0,1-1,3.72,3.19,3.19,0,0,1-1.75.81,11.72,11.72,0,0,1-1.68.12l-3.62-.1" transform="translate(-0.09 -30.19)"/><path class="cls-4" d="M115.79,89.71h-2.36v11.12s0,1,.11,1.37a1.81,1.81,0,0,0,1.93,1.21l2.45-.06v-1.42s-.66,0-1.06,0-.9,0-1-.72-.08-1.5-.08-1.5V93.21h2.67V91.79h-2.67V89.71" transform="translate(-0.09 -30.19)"/><rect class="cls-4" x="138.51" y="61.59" width="2.37" height="11.62"/><rect class="cls-4" x="138.51" y="58.06" width="2.37" height="2.11"/><path class="cls-4" d="M148.44,91.69a5.85,5.85,0,0,1,3.53.9c.67.55,1.5,1.69,1.5,5s-.83,4.46-1.5,5a7.37,7.37,0,0,1-7.06,0c-.67-.54-1.51-1.69-1.51-5s.84-4.46,1.51-5A5.85,5.85,0,0,1,148.44,91.69Zm-1.62,2.23c-.33.4-.72,1.24-.72,3.68s.39,3.27.72,3.67a2.13,2.13,0,0,0,1.69.67,2.15,2.15,0,0,0,1.7-.67c.33-.4.73-1.23.73-3.67s-.4-3.28-.73-3.68a2.15,2.15,0,0,0-1.7-.67,2.13,2.13,0,0,0-1.69.67" transform="translate(-0.09 -30.19)"/><path class="cls-4" d="M158.37,93.42l2.32-.1a2.18,2.18,0,0,1,1.66.6,2.55,2.55,0,0,1,.53,1.71v7.76h2.37v-8a3.42,3.42,0,0,0-1.16-2.93,4.88,4.88,0,0,0-2.77-.71l-5.3.1v11.5h2.35v-10" transform="translate(-0.09 -30.19)"/><path class="cls-4" d="M133.9,89.71h-2.37v11.12s.06,1,.12,1.37a1.8,1.8,0,0,0,1.93,1.21l2.45-.06v-1.42s-.66,0-1.07,0-.89,0-1-.72-.08-1.5-.08-1.5V93.21h2.66V91.79H133.9V89.71" transform="translate(-0.09 -30.19)"/><path class="cls-4" d="M86.54,95.63A2.6,2.6,0,0,0,86,93.92a2.23,2.23,0,0,0-1.67-.6l-3.12.1V91.89l3.75-.1a4.88,4.88,0,0,1,2.77.71,3.45,3.45,0,0,1,1.16,2.93v7.85l-4.53.1a10.82,10.82,0,0,1-3.09-.41c-1-.41-1.56-1.54-1.56-3.1a3.42,3.42,0,0,1,1.16-2.93,4.86,4.86,0,0,1,2.76-.71H85.1v1.34h-.81a2,2,0,0,0-1.58.55,2.12,2.12,0,0,0-.5,1.56c0,1,.2,1.51.69,1.86a3.81,3.81,0,0,0,2.08.38l1.56-.09v-6.2" transform="translate(-0.09 -30.19)"/><path class="cls-4" d="M126.41,95.63a2.6,2.6,0,0,0-.52-1.71,2.22,2.22,0,0,0-1.67-.6l-3.12.1V91.89l3.75-.1a4.88,4.88,0,0,1,2.77.71,3.44,3.44,0,0,1,1.15,2.93v7.85l-4.52.1a10.82,10.82,0,0,1-3.09-.41c-1-.41-1.56-1.54-1.56-3.1a3.45,3.45,0,0,1,1.16-2.93,4.88,4.88,0,0,1,2.77-.71H125v1.34h-.81a2,2,0,0,0-1.58.55,2.16,2.16,0,0,0-.5,1.56c0,1,.21,1.51.69,1.86a3.79,3.79,0,0,0,2.08.38l1.56-.09v-6.2" transform="translate(-0.09 -30.19)"/><path class="cls-4" d="M169.53,103.5a2.31,2.31,0,1,0-2.3-2.31,2.32,2.32,0,0,0,2.3,2.31Zm-1.91-2.31a1.92,1.92,0,0,1,.56-1.36,1.93,1.93,0,0,1,3.28,1.36,1.93,1.93,0,0,1-1.93,1.92,1.9,1.9,0,0,1-1.35-.56,1.94,1.94,0,0,1-.56-1.36" transform="translate(-0.09 -30.19)"/><path class="cls-4" d="M170.68,102.26s-.06-.05-.08-.11a.88.88,0,0,1,0-.2v-.32a.61.61,0,0,0-.1-.35.44.44,0,0,0-.15-.12,1.21,1.21,0,0,0,.2-.19.75.75,0,0,0,.1-.39.62.62,0,0,0-.39-.63,1.13,1.13,0,0,0-.49-.09h-1.19v2.57H169v-1.05h.7a.94.94,0,0,1,.28,0,.31.31,0,0,1,.14.28l0,.41a.81.81,0,0,0,0,.2l0,.1,0,0h.5v-.15Zm-.52-1.65a.34.34,0,0,1-.11.29.57.57,0,0,1-.34.08H169v-.72h.76a.6.6,0,0,1,.25,0,.32.32,0,0,1,.15.31" transform="translate(-0.09 -30.19)"/><path class="cls-4" d="M186.46,90.21c0,1.75-.06,2.67-.64,3.54s-1.55,1.47-3.81,1.47l-2.8-.08a3.29,3.29,0,0,0-2.14.72c-.46.5-.5.87-.55,2.21V102h9.55v1.92H175.13a1.36,1.36,0,0,1-1.4-1.44V99.54c.05-3.42.29-3.9,1-4.8A4.72,4.72,0,0,1,178,93.35c.29,0,.83,0,1.59,0l1.36.05c1.3,0,1.77-.23,2.13-.7a3.26,3.26,0,0,0,.62-2.15,3.79,3.79,0,0,0-.55-2.26,2.32,2.32,0,0,0-2.08-.8c-3.09,0-6.69.07-6.69.07V85.71s3.52-.15,7.11-.2c2.24,0,3.47.56,4.09,1.37a4.85,4.85,0,0,1,.93,3.33" transform="translate(-0.09 -30.19)"/><path class="cls-4" d="M258.06,68.83h-1.7v-.58h4v.58h-1.68v4.56h-.66Z" transform="translate(-0.09 -30.19)"/><path class="cls-4" d="M263.12,73.39l-1.39-4.17v4.17h-.68V68.25H262l1.48,4.37,1.48-4.37h.94v5.14h-.68V69.22l-1.4,4.17Z" transform="translate(-0.09 -30.19)"/></svg>